<svg xmlns="http://www.w3.org/2000/svg" id="_&#x421;&#x43B;&#x43E;&#x439;_2" data-name="&#x421;&#x43B;&#x43E;&#x439; 2" viewBox="0 0 33.84 22.75"><defs><style>      .cls-1 {        fill: #818481;      }      .cls-1, .cls-2 {        fill-rule: evenodd;      }      .cls-2 {        fill: #23a4e5;      }    </style></defs><g id="Layer_1" data-name="Layer 1"><g><path class="cls-2" d="M19.06,22.39l-3.65-.94c-1.79-.47-1.99-.11-.94-1.45l1.88-2.37c.6-.76.51-.79.45.16l-.05.76c10.09-2.44,24.64-13.17,6.69-8.37-.05,0-.11.02-.14.02l-3.31.98c-.44.13-.89-.2-.98-.65h0c-.07-.43.22-.83.65-.96l1.92-.61c.09.38.02.99.54.72.25-.13.34-.24.43-.45.14-.34.04-.99-.25-1.3-.14-.16-.29-.29-.4-.38l3.27,1.01c.38.13.76-.09.85-.43h0c.07-.33-.2-.65-.56-.76l-2.97-.94v-.02l.34.09s.07,0,.13.02l3.6.9c.31.07.62-.13.69-.43h0c.07-.31-.13-.61-.43-.69l-3.53-.9s-.09-.04-.15-.05l3.22.56c.31.07.62-.11.71-.42h0c.07-.33-.13-.65-.43-.7l-3.22-.58c-.05-.02-.11-.05-.18-.07h0l1.77.22c.31.04.58-.11.65-.4h0c.07-.29-.11-.61-.4-.65l-2.24-.33s-.05-.02-.09-.02c-1.17-.27-3.56-.63-2.62-2.66.22-.43.42-.33.63-.04.25.31.51.85.79.92.8.13,1.54.25,2.22.4,16.8,3.47,10.26,13.09-5.37,19.6l.72.83c.65.7.67.61-.25.38h0ZM19.87,7.27l-3.96.72c-.47.09-.94-.22-1.03-.69h0c-.11-.47.2-.96.69-1.05,1.54-.27,2.95.18,4.31,1.01h0ZM20.06,7.4c.52.36.99.8,1.45,1.37.02.02.04.04.04.07l-4.4,1.12c-.47.13-.94-.22-1.05-.69h0c-.09-.47.24-.92.71-1.03l3.26-.85Z"></path><path class="cls-1" d="M14.77.36l3.65.96c1.79.45,1.99.11.94,1.43l-1.88,2.37c-.6.76-.51.8-.45-.16l.05-.74c-10.09,2.42-24.64,13.15-6.69,8.37.05-.02.11-.02.14-.04l3.31-.98c.43-.13.89.22.98.65h0c.09.45-.22.83-.65.98l-1.92.61c-.09-.38,0-1.01-.54-.74-.25.13-.33.25-.43.47-.14.33-.04.98.25,1.28.14.16.29.29.4.38l-3.27-1.01c-.38-.13-.76.11-.83.43h0c-.09.33.18.65.54.76l2.97.96h0l-.34-.07s-.07-.02-.11-.02l-3.62-.92c-.31-.07-.61.13-.69.43h0c-.07.31.13.62.43.71l3.53.89c.05.04.09.05.14.07l-3.22-.58c-.31-.05-.62.13-.69.43h0c-.07.31.11.63.43.69l3.2.58c.05.04.13.05.18.07h.02-.02l-1.77-.22c-.29-.02-.58.13-.65.42h0c-.07.29.11.6.4.63l2.24.33s.05.02.09.02c1.18.27,3.56.65,2.62,2.66-.22.43-.42.33-.63.05-.23-.33-.51-.87-.8-.94-.78-.13-1.52-.25-2.23-.4C-6.93,17.7-.37,8.08,15.24,1.57l-.72-.83c-.65-.71-.67-.62.25-.38h0ZM13.96,15.48l3.96-.72c.49-.09.94.22,1.05.69h0c.09.49-.22.96-.71,1.05-1.54.27-2.95-.18-4.31-1.01h0ZM13.78,15.35c-.52-.34-.99-.79-1.45-1.37-.02-.02-.02-.04-.04-.07l4.4-1.12c.47-.13.96.22,1.05.69h0c.09.47-.22.92-.69,1.05l-3.27.83Z"></path></g></g></svg>